<?xml version="1.0" standalone="no"?>
<!DOCTYPE svg PUBLIC "-//W3C//DTD SVG 20010904//EN"
 "http://www.w3.org/TR/2001/REC-SVG-20010904/DTD/svg10.dtd">
<svg version="1.0" xmlns="http://www.w3.org/2000/svg"
 width="4060.000000pt" height="1787.000000pt" viewBox="0 0 4060.000000 1787.000000"
 preserveAspectRatio="xMidYMid meet">

<g transform="translate(0.000000,1787.000000) scale(0.100000,-0.100000)"
fill="#000000" stroke="none">
<path d="M9135 14129 c-1167 -81 -2250 -523 -3155 -1288 -160 -135 -466 -441
-601 -601 -335 -396 -623 -850 -820 -1290 l-38 -85 2602 -5 2602 -5 120 -22
c356 -65 628 -179 882 -369 121 -91 254 -221 334 -327 77 -103 162 -276 196
-402 25 -93 27 -113 27 -300 0 -184 -2 -208 -27 -298 -94 -349 -356 -655 -757
-882 -186 -106 -431 -188 -690 -232 -96 -16 -226 -18 -1572 -20 -808 -2 -1468
-6 -1468 -9 0 -2 171 -209 380 -459 l381 -455 798 0 799 0 1024 -1297 c562
-714 1023 -1302 1023 -1307 0 -12 -235 -98 -399 -145 -791 -232 -1608 -250
-2401 -54 -1180 291 -2195 1043 -2830 2098 -615 1020 -800 2283 -508 3450 54
217 131 452 211 643 l59 142 -446 -2 -446 -3 -62 -185 c-169 -508 -257 -1022
-270 -1580 -24 -1039 237 -2027 769 -2915 344 -573 793 -1078 1337 -1503 142
-111 474 -332 641 -426 1339 -757 2934 -911 4395 -424 397 132 826 336 1180
561 175 110 366 250 361 262 -2 7 -132 169 -288 360 -286 352 -1948 2446
-1948 2455 0 3 69 27 153 53 188 60 397 142 542 214 570 284 1026 715 1256
1189 229 474 235 1033 17 1530 -168 380 -495 737 -943 1029 -478 311 -970 481
-1625 562 -120 15 -345 17 -1979 22 l-1843 6 133 134 c891 891 2078 1367 3339
1338 879 -21 1704 -279 2425 -760 500 -334 952 -786 1280 -1282 782 -1181 975
-2639 526 -3984 -193 -578 -507 -1118 -922 -1586 -99 -112 -288 -301 -392
-392 l-58 -51 277 -335 278 -336 70 61 c120 104 486 477 588 598 1006 1207
1443 2744 1217 4290 -233 1602 -1182 3021 -2579 3861 -736 442 -1577 703
-2445 759 -183 12 -534 11 -710 -1z"/>
<path d="M17220 9045 l0 -2345 235 0 235 0 0 940 0 940 661 -2 662 -3 546
-937 546 -937 267 -1 267 0 -28 48 c-15 26 -269 455 -565 954 -295 500 -539
914 -542 922 -3 9 18 21 73 41 308 109 565 321 739 611 137 229 206 508 190
780 -20 363 -142 644 -390 902 -173 180 -351 294 -566 366 -204 67 -182 66
-1312 66 l-1018 0 0 -2345z m1988 1904 c202 -22 376 -105 530 -253 136 -130
215 -259 269 -433 24 -81 27 -102 27 -268 1 -199 -8 -252 -69 -397 -95 -224
-308 -434 -527 -518 -155 -60 -157 -60 -989 -60 l-759 0 0 970 0 970 710 0
c438 0 748 -4 808 -11z"/>
<path d="M21815 9208 c-461 -1201 -867 -2256 -901 -2345 l-62 -163 246 0 247
0 215 573 216 572 1119 3 1120 2 215 -571 c118 -314 220 -573 225 -575 6 -3
117 -3 247 -2 l236 3 -864 2250 c-475 1238 -881 2292 -900 2343 l-36 92 -242
0 -242 0 -839 -2182z m1559 341 c256 -680 466 -1241 466 -1248 0 -8 -243 -11
-945 -11 -520 0 -945 4 -945 9 0 6 895 2384 935 2484 4 10 11 15 15 10 4 -4
218 -564 474 -1244z"/>
<path d="M25550 9045 l0 -2345 235 0 235 0 0 1095 0 1095 1280 0 1280 0 0
-1095 0 -1095 230 0 230 0 0 2345 0 2345 -230 0 -230 0 0 -1030 0 -1030 -1280
0 -1280 0 0 1030 0 1030 -235 0 -235 0 0 -2345z"/>
<path d="M31241 10833 c-118 -307 -523 -1362 -901 -2345 l-687 -1788 246 0
246 0 216 573 216 572 1120 3 1119 2 216 -572 216 -573 246 -3 c135 -1 246 -1
246 0 0 2 -405 1056 -899 2343 l-899 2340 -244 3 -243 2 -214 -557z m937
-1293 l470 -1245 -946 -3 c-520 -1 -947 0 -950 2 -3 3 693 1858 936 2494 2 7
8 10 13 5 4 -4 219 -568 477 -1253z"/>
<path d="M33610 11175 l0 -215 725 0 725 0 0 -2130 0 -2130 230 0 230 0 2
2128 3 2127 723 3 722 2 0 215 0 215 -1680 0 -1680 0 0 -215z"/>
</g>
</svg>
